<svg xmlns="http://www.w3.org/2000/svg" viewBox="0 0 32 32" width="32" height="32">
  <defs>
    <linearGradient id="grad1" x1="0%" y1="0%" x2="100%" y2="100%">
      <stop offset="0%" style="stop-color:#007bff;stop-opacity:1" />
      <stop offset="100%" style="stop-color:#0056b3;stop-opacity:1" />
    </linearGradient>
    <linearGradient id="grad2" x1="0%" y1="0%" x2="100%" y2="100%">
      <stop offset="0%" style="stop-color:#28a745;stop-opacity:1" />
      <stop offset="100%" style="stop-color:#1e7e34;stop-opacity:1" />
    </linearGradient>
  </defs>
  
  <!-- Background circle -->
  <circle cx="16" cy="16" r="15" fill="url(#grad1)" stroke="#ffffff" stroke-width="1"/>
  
  <!-- Football/soccer ball pattern -->
  <g fill="url(#grad2)">
    <!-- Main pentagon -->
    <path d="M16 4 L20 8 L18 12 L14 12 L12 8 Z" />
    <!-- Hexagons around -->
    <path d="M20 8 L24 12 L22 16 L18 16 L16 12 Z" />
    <path d="M12 8 L16 12 L14 16 L10 16 L8 12 Z" />
    <path d="M18 16 L22 20 L20 24 L16 24 L14 20 Z" />
    <path d="M14 16 L18 20 L16 24 L12 24 L10 20 Z" />
    <!-- Bottom pentagon -->
    <path d="M16 24 L20 28 L18 32 L14 32 L12 28 Z" />
  </g>
  
  <!-- "TL" text -->
  <text x="16" y="22" font-family="Arial, sans-serif" font-size="8" font-weight="bold" text-anchor="middle" fill="#ffffff">TL</text>
</svg>